<?xml version="1.0" encoding="UTF-8" standalone="no"?>
<!-- Created with Inkscape (http://www.inkscape.org/) -->

<svg
   version="1.1"
   id="svg4158"
   xml:space="preserve"
   width="1066.6667"
   height="1066.6667"
   viewBox="0 0 1066.6667 1066.6667"
   sodipodi:docname="tulips-vector-publicdomainvectors.org.svg"
   inkscape:version="1.1.2 (b8e25be833, 2022-02-05)"
   xmlns:inkscape="http://www.inkscape.org/namespaces/inkscape"
   xmlns:sodipodi="http://sodipodi.sourceforge.net/DTD/sodipodi-0.dtd"
   xmlns="http://www.w3.org/2000/svg"
   xmlns:svg="http://www.w3.org/2000/svg"><defs
     id="defs4162"><clipPath
       clipPathUnits="userSpaceOnUse"
       id="clipPath4172"><path
         d="M 0,800 H 800 V 0 H 0 Z"
         id="path4170" /></clipPath></defs><sodipodi:namedview
     id="namedview4160"
     pagecolor="#ffffff"
     bordercolor="#666666"
     borderopacity="1.0"
     inkscape:pageshadow="2"
     inkscape:pageopacity="0.0"
     inkscape:pagecheckerboard="0"
     showgrid="false"
     inkscape:zoom="0.77906244"
     inkscape:cx="533.33337"
     inkscape:cy="533.33337"
     inkscape:window-width="1920"
     inkscape:window-height="1018"
     inkscape:window-x="-8"
     inkscape:window-y="-8"
     inkscape:window-maximized="1"
     inkscape:current-layer="g4164" /><g
     id="g4164"
     inkscape:groupmode="layer"
     inkscape:label="tulips-vector-publicdomainvectors.org"
     transform="matrix(1.3333333,0,0,-1.3333333,0,1066.6667)"><g
       id="g4166"><g
         id="g4168"
         clip-path="url(#clipPath4172)"><path
           d="m 308.34,614.706 c 48.142,-88.743 75.327,-168.978 91.243,-244.718 15.885,-75.597 20.497,-146.582 23.531,-217.067 l -11.143,-0.481 c -3.013,69.981 -7.59,140.434 -23.316,215.277 -15.699,74.704 -42.551,153.917 -90.148,241.658 z"
           style="fill:#abde7e;fill-opacity:1;fill-rule:evenodd;stroke:none"
           id="path4174" /><path
           d="M 466.539,676.975 C 429.607,554.229 428.518,398.024 427.614,268.601 c -0.294,-42.284 -0.57,-81.727 -2.049,-116.115 l -11.147,0.48 c 1.484,34.472 1.759,73.665 2.053,115.68 0.908,130.208 2.004,287.363 39.361,411.519 z"
           style="fill:#abde7e;fill-opacity:1;fill-rule:evenodd;stroke:none"
           id="path4176" /><path
           d="m 376.818,153.312 c 31.016,136.445 22.509,275.964 -27.643,418.726 71.698,-89.988 98.063,-233.689 88.744,-419.675 -20.367,0.318 -40.733,0.633 -61.101,0.949"
           style="fill:#7cb54b;fill-opacity:1;fill-rule:evenodd;stroke:none"
           id="path4178" /><path
           d="m 376.818,153.312 c 31.016,136.445 22.509,275.964 -27.643,418.726 75.642,-147.869 70.426,-284.042 58.192,-419.199 z"
           style="fill:#5f992c;fill-opacity:1;fill-rule:evenodd;stroke:none"
           id="path4180" /><path
           d="m 462.141,153.53 c -19.284,167.86 1.225,339.505 63.653,515.137 C 446.356,557.96 407.634,381.17 400.957,152.363 c 20.397,0.389 40.79,0.779 61.184,1.167"
           style="fill:#5f992c;fill-opacity:1;fill-rule:evenodd;stroke:none"
           id="path4182" /><path
           d="m 462.141,153.53 c -19.284,167.86 1.225,339.505 63.653,515.137 C 437.436,486.753 430.942,319.227 431.55,152.946 Z"
           style="fill:#7cb54b;fill-opacity:1;fill-rule:evenodd;stroke:none"
           id="path4184" /><path
           d="m 358.821,153.312 c 19.283,136.445 -1.223,275.964 -63.654,418.726 79.437,-89.988 118.161,-233.689 124.835,-419.675 -20.394,0.318 -40.787,0.633 -61.181,0.949"
           style="fill:#7cb54b;fill-opacity:1;fill-rule:evenodd;stroke:none"
           id="path4186" /><path
           d="m 358.821,153.312 c 19.283,136.445 -1.223,275.964 -63.654,418.726 88.361,-147.869 94.852,-284.042 94.245,-419.199 z"
           style="fill:#5f992c;fill-opacity:1;fill-rule:evenodd;stroke:none"
           id="path4188" /><path
           d="m 483.302,789.513 c -0.059,0.632 6.36,7.051 11.461,-0.21 3.419,-4.87 6.11,-2.11 12.002,-2.935 9.107,-1.276 6.593,-11.728 6.704,-15.15 0.185,-5.834 -3.61,-20.594 -7.902,-24.661 -3.929,-3.723 -18.342,-12.817 -22.921,-5.448 -5.902,9.504 -8.913,18.53 -5.323,29.198 1.816,5.392 2.33,6.937 5.133,11.716 0.88,1.502 0.953,6.285 0.846,7.49"
           style="fill:#deb200;fill-opacity:1;fill-rule:evenodd;stroke:none"
           id="path4190" /><path
           d="m 483.302,789.513 c -0.059,0.632 6.36,7.051 11.461,-0.21 0.438,-0.626 0.864,-1.125 1.288,-1.522 v -10e-4 c 7.167,-8.535 6.335,-21.525 6.989,-33.687 -5.755,-1.78 -11.513,-3.562 -17.268,-5.343 l -9.746,16.096 c 0.243,1.778 0.668,3.594 1.297,5.461 1.816,5.392 2.33,6.937 5.133,11.716 0.88,1.502 0.953,6.285 0.846,7.49"
           style="fill:#c9a100;fill-opacity:1;fill-rule:evenodd;stroke:none"
           id="path4192" /><path
           d="m 456.042,656.868 -5.741,5.773 c 0.005,1.764 0.181,1.709 0.798,3.854 l 9.773,29.077 15.023,-13.168 -10.852,-23.85 z"
           style="fill:#a38200;fill-opacity:1;fill-rule:evenodd;stroke:none"
           id="path4194" /><path
           d="m 455.936,656.898 c 5.33,4.697 13.322,18.111 6.637,27.141 -6.721,9.076 -2.51,31.305 7.515,44.605 13.937,18.489 28.115,30.903 39.495,48.432 4.005,6.169 12.576,4.026 14.45,-1.989 8.719,-27.975 13.391,-59.745 -0.255,-91.839 -14.442,-33.966 -44.036,-33.211 -67.842,-26.35"
           style="fill:#ffcc00;fill-opacity:1;fill-rule:evenodd;stroke:none"
           id="path4196" /><path
           d="m 455.936,656.898 c 5.33,4.697 13.322,18.111 6.637,27.141 -6.721,9.076 -2.51,31.305 7.515,44.605 8.048,10.675 16.177,19.327 23.8,28.106 0.775,-11.401 1.826,-22.701 1.787,-34.246 -0.018,-5.479 -0.945,-11.032 -2.457,-16.29 -3.316,-11.509 -11.462,-27.257 -23.867,-30.881 -5.534,-1.615 -6.872,-12.384 -5.931,-17.036 l 0.691,-3.431 c -2.776,0.575 -5.512,1.266 -8.175,2.032"
           style="fill:#f0c000;fill-opacity:1;fill-rule:evenodd;stroke:none"
           id="path4198" /><path
           d="m 455.936,656.898 c 4.102,3.615 9.782,12.396 9.128,20.366 0.007,0.005 -0.085,0.809 -0.096,0.884 -1.557,14.13 -0.802,28.136 9.109,41.648 -9.018,-15.617 -8.564,-31.441 -1.709,-47.403 -1.85,18.664 0.866,38.308 10.508,59.435 -7.012,-22.006 -8.775,-40.735 -6.082,-56.677 0.351,18.431 4.156,37.029 12.296,55.835 -5.751,-21.093 -6.813,-40.982 -5.27,-60.2 14.044,17.868 17.472,37.834 16.726,59.343 2.709,-15.686 3.694,-31.366 2.41,-47.04 5.41,18.131 10.331,36.457 10.126,56.814 3.196,-18.894 0.483,-37.389 -2.56,-55.863 0.301,0.149 0.599,0.297 0.9,0.446 6.144,19.672 11.975,39.451 12.088,61.155 2.185,-21.337 -2.042,-40.849 -6.318,-60.348 7.987,19.186 13.701,39.137 12.704,61.346 l 1.207,-2.277 c 2.67,-19.602 1.53,-40.29 -7.325,-61.114 -14.442,-33.966 -44.036,-33.211 -67.842,-26.35"
           style="fill:#deb200;fill-opacity:1;fill-rule:evenodd;stroke:none"
           id="path4200" /><path
           d="m 476.933,679.326 c 0.81,17.065 4.63,34.273 12.157,51.66 -4.274,-15.674 -5.957,-30.684 -5.907,-45.247 -1.87,-2.43 -3.955,-4.625 -6.25,-6.413 m -4.887,-2.989 c 1.474,0.668 2.879,1.506 4.214,2.482 -1.861,15.128 0.136,32.669 6.616,53.009 -8.965,-19.644 -11.941,-38.006 -10.83,-55.491 m -16.11,-19.439 c 4.102,3.615 9.782,12.396 9.128,20.366 0.007,0.005 -0.085,0.809 -0.096,0.884 -1.557,14.13 -0.802,28.136 9.109,41.648 -8.361,-14.477 -8.58,-29.133 -3.105,-43.911 -0.534,-0.207 -1.073,-0.392 -1.621,-0.552 -5.534,-1.615 -6.872,-12.384 -5.931,-17.036 l 0.691,-3.431 c -2.776,0.575 -5.512,1.266 -8.175,2.032"
           style="fill:#d1a700;fill-opacity:1;fill-rule:evenodd;stroke:none"
           id="path4202" /><path
           d="m 459.404,699.497 c 0.059,9.789 4.122,21.329 10.208,29.4 13.936,18.49 28.619,32.977 40.775,49.977 5.178,7.241 11.776,3.539 13.65,-2.478 8.719,-27.973 14.379,-61.638 0.733,-93.73 -9.698,-22.808 -27.217,-29.376 -44.237,-29.537 16.209,0.592 32.272,8.328 41.706,29.809 10.562,24.05 13.089,56.152 0.921,90.9 -1.571,4.485 -8.747,7.441 -11.833,3.177 -12.434,-17.185 -27.503,-31.684 -40.505,-49.347 -6.643,-9.026 -9.561,-18.821 -11.418,-28.171"
           style="fill:#ffefb0;fill-opacity:1;fill-rule:evenodd;stroke:none"
           id="path4204" /><path
           d="m 459.404,699.497 c 0.059,9.789 4.122,21.329 10.208,29.4 8.023,10.645 16.291,19.962 24.185,29.195 0.056,-0.831 0.112,-1.661 0.169,-2.49 -7.81,-9.005 -15.806,-17.964 -23.144,-27.934 -6.643,-9.026 -9.561,-18.821 -11.418,-28.171"
           style="fill:#f28a83;fill-opacity:1;fill-rule:evenodd;stroke:none"
           id="path4206" /><path
           d="m 456.144,656.829 c -1.406,6.962 0.34,22.479 11.124,25.629 10.84,3.167 20.926,23.417 20.985,40.072 0.078,23.154 -3.706,41.616 -2.172,62.458 0.54,7.334 -7.584,10.809 -12.715,7.151 -23.858,-17.009 -46.789,-39.488 -55.326,-73.301 -9.034,-35.786 14.995,-53.08 38.104,-62.009"
           style="fill:#ffcc00;fill-opacity:1;fill-rule:evenodd;stroke:none"
           id="path4208" /><path
           d="m 527.197,723.598 c 0.817,16.972 1.372,33.871 -6.03,50.758 -2.015,4.599 -6.62,2.446 -8.651,-0.461 -8.133,-11.639 -18.023,-23.234 -27.055,-32.125 5.805,4.098 12.269,9.392 17.233,15.939 -1.955,-7.403 -6.205,-13.631 -10.652,-19.03 7.686,5.662 12.293,14.129 16.767,22.719 -3.063,-8.369 -4.802,-16.597 -3.365,-24.48 0.708,10.217 3.01,20.18 11.319,29.176 3.639,-9.094 4.043,-18.317 1.94,-27.642 2.364,7.344 4.001,14.754 2.313,22.461 6.041,-12.261 5.617,-24.81 6.181,-37.315"
           style="fill:#ffe26e;fill-opacity:1;fill-rule:evenodd;stroke:none"
           id="path4210" /><path
           d="m 494.914,742.35 c -0.934,-1.267 -1.897,-2.489 -2.872,-3.671 1.037,0.765 2.021,1.581 2.952,2.441 -0.026,0.41 -0.054,0.82 -0.08,1.23 m -0.62,8.682 0.157,-2.159 c -2.979,-2.676 -6.068,-5.041 -8.99,-7.103 2.885,2.84 5.856,5.956 8.833,9.262"
           style="fill:#ffd426;fill-opacity:1;fill-rule:evenodd;stroke:none"
           id="path4212" /><path
           d="m 456.144,656.829 c -1.081,5.359 -0.295,15.786 5.042,21.741 0,0.009 0.559,0.591 0.613,0.645 9.782,10.314 17.651,21.924 17.926,38.681 -2.259,-17.894 -12.188,-30.223 -27.299,-38.791 12.758,13.747 22.47,31.037 27.567,53.693 -7.722,-21.766 -17.64,-37.751 -29.426,-48.819 10.865,14.891 19.079,32.005 23.968,51.907 -8.176,-20.279 -19.353,-36.762 -32.205,-51.135 -0.382,22.724 8.961,40.697 22.562,57.379 -11.643,-10.857 -21.909,-22.75 -30.364,-36.011 6.655,17.714 13.815,35.286 26.29,51.375 -13.97,-13.117 -22.996,-29.487 -31.741,-46.041 -0.148,0.299 -0.298,0.599 -0.447,0.9 7.003,19.383 14.316,38.663 27.351,56.016 -14.642,-15.673 -23.074,-33.77 -31.458,-51.885 5.24,20.11 12.75,39.456 26.976,56.542 l -2.339,-1.084 c -13.981,-13.998 -25.583,-31.165 -31.12,-53.104 -9.034,-35.786 14.995,-53.08 38.104,-62.009"
           style="fill:#deb200;fill-opacity:1;fill-rule:evenodd;stroke:none"
           id="path4214" /><path
           d="m 479.137,692.855 c 5.874,7.833 9.613,19.48 9.648,29.589 0.079,23.155 -2.855,43.57 -2.259,64.461 0.255,8.898 -7.24,9.938 -12.369,6.281 -23.858,-17.009 -48.721,-40.401 -57.259,-74.213 -6.068,-24.029 3.917,-39.854 17.375,-50.275 -12.552,10.274 -20.669,26.147 -15.194,48.961 6.13,25.544 23.525,52.64 54.231,72.958 3.963,2.622 11.465,0.637 11.344,-4.624 -0.488,-21.208 2.747,-41.867 2.423,-63.796 -0.164,-11.207 -3.763,-20.773 -7.94,-29.342"
           style="fill:#ffefb0;fill-opacity:1;fill-rule:evenodd;stroke:none"
           id="path4216" /><path
           d="m 440.331,752.835 c 9.611,14.012 19.389,27.808 35.495,36.782 4.385,2.444 6.751,-2.055 6.612,-5.598 -0.561,-14.188 0.306,-29.404 2.124,-41.948 -2.147,6.775 -4.094,14.901 -4.089,23.117 -2.918,-7.08 -3.301,-14.609 -3.022,-21.598 -2.699,9.157 -1.249,18.687 0.385,28.233 -2.624,-8.517 -6.214,-16.122 -12.123,-21.533 5.613,8.568 9.802,17.895 8.626,30.082 -8.397,-5.042 -14.297,-12.143 -18.261,-20.842 2.56,7.279 5.736,14.17 11.74,19.288 -12.224,-6.113 -19.475,-16.365 -27.487,-25.983"
           style="fill:#ffe26e;fill-opacity:1;fill-rule:evenodd;stroke:none"
           id="path4218" /><path
           d="m 226.396,710.581 c -0.506,0.383 -0.906,9.452 7.893,8.31 5.9,-0.766 5.682,3.083 10.268,6.87 7.091,5.857 13.104,-3.054 15.701,-5.284 4.431,-3.802 12.754,-16.568 12.856,-22.479 0.093,-5.412 -2.931,-22.186 -11.459,-20.585 -10.997,2.064 -19.685,5.938 -25.132,15.789 -2.749,4.978 -3.542,6.402 -5.174,11.697 -0.514,1.664 -3.992,4.947 -4.953,5.682"
           style="fill:#b50000;fill-opacity:1;fill-rule:evenodd;stroke:none"
           id="path4220" /><path
           d="m 226.396,710.581 c -0.506,0.383 -0.906,9.452 7.893,8.31 0.758,-0.099 1.413,-0.12 1.992,-0.076 v -0.001 c 11.135,-0.478 20.157,-9.861 29.567,-17.592 -2.573,-5.449 -5.144,-10.897 -7.719,-16.346 l -18.452,3.681 c -1.148,1.38 -2.198,2.921 -3.154,4.645 -2.749,4.978 -3.542,6.402 -5.174,11.697 -0.514,1.664 -3.992,4.947 -4.953,5.682"
           style="fill:#a10000;fill-opacity:1;fill-rule:evenodd;stroke:none"
           id="path4222" /><path
           d="m 305.824,600.904 -8.133,-0.336 c -1.298,1.197 -1.136,1.288 -2.303,3.192 l -14.848,26.842 19.857,2.189 10.262,-24.108 z"
           style="fill:#6e0000;fill-opacity:1;fill-rule:evenodd;stroke:none"
           id="path4224" /><path
           d="m 305.731,600.848 c 0.134,7.101 -4.363,22.054 -15.537,23.221 -11.232,1.172 -24.785,19.287 -27.826,35.663 -4.225,22.765 -3.808,41.606 -9.054,61.835 -1.845,7.12 5.522,11.995 11.226,9.315 26.521,-12.458 53.108,-30.465 67.567,-62.201 15.3,-33.587 -5.241,-54.907 -26.376,-67.833"
           style="fill:#eb0000;fill-opacity:1;fill-rule:evenodd;stroke:none"
           id="path4226" /><path
           d="m 305.731,600.848 c 0.134,7.101 -4.363,22.054 -15.537,23.221 -11.232,1.172 -24.785,19.287 -27.826,35.663 -2.438,13.145 -3.333,24.982 -4.66,36.532 8.935,-7.125 17.978,-13.98 26.467,-21.805 4.029,-3.713 7.5,-8.146 10.357,-12.813 6.25,-10.216 12.364,-26.859 6.661,-38.457 -2.547,-5.17 4.495,-13.427 8.559,-15.877 l 2.999,-1.806 c -2.299,-1.661 -4.655,-3.213 -7.02,-4.658"
           style="fill:#db0000;fill-opacity:1;fill-rule:evenodd;stroke:none"
           id="path4228" /><path
           d="m 305.731,600.848 c 0.104,5.466 -2.537,15.584 -8.856,20.485 0,0.009 -0.655,0.482 -0.718,0.525 -11.472,8.395 -21.295,18.406 -24.567,34.842 5.427,-17.199 17.405,-27.549 33.808,-33.27 -15.016,11.238 -27.67,26.508 -36.743,47.884 11.496,-20.03 24.12,-33.978 37.699,-42.757 -13.359,12.703 -24.507,28.068 -32.881,46.772 11.674,-18.485 25.628,-32.699 40.843,-44.536 -3.696,22.424 -16.108,38.434 -32.475,52.408 13.398,-8.595 25.631,-18.456 36.322,-29.988 -9.719,16.235 -19.914,32.24 -35.069,45.834 16.095,-10.401 27.907,-24.89 39.478,-39.609 0.091,0.322 0.186,0.643 0.277,0.964 -10.362,17.817 -21.012,35.472 -36.945,50.21 17.214,-12.795 28.751,-29.09 40.247,-45.409 -8.757,18.846 -19.616,36.532 -36.67,50.794 l 2.494,-0.647 c 16.263,-11.267 30.753,-26.078 40.132,-46.669 15.3,-33.587 -5.241,-54.907 -26.376,-67.833"
           style="fill:#cf0000;fill-opacity:1;fill-rule:evenodd;stroke:none"
           id="path4230" /><path
           d="m 303.367,631.48 c 0.23,2.9 0.022,5.918 -0.51,8.939 -10.776,9.796 -20.709,21.174 -29.384,34.91 7.741,-17.291 17.856,-31.729 29.894,-43.849 m -1.094,-5.624 c 0.502,1.539 0.831,3.14 1.012,4.785 -12.414,8.842 -24.003,22.159 -34.63,40.673 8.435,-19.876 19.968,-34.471 33.618,-45.458 m 3.458,-25.008 c 0.104,5.466 -2.537,15.584 -8.856,20.485 0,0.009 -0.655,0.482 -0.718,0.525 -11.472,8.395 -21.295,18.406 -24.567,34.842 5.032,-15.943 15.693,-26 30.29,-31.942 -0.207,-0.532 -0.437,-1.056 -0.687,-1.569 -2.547,-5.17 4.495,-13.427 8.559,-15.877 l 2.999,-1.806 c -2.299,-1.661 -4.655,-3.213 -7.02,-4.658"
           style="fill:#b00000;fill-opacity:1;fill-rule:evenodd;stroke:none"
           id="path4232" /><path
           d="m 276.654,632.171 c -7.182,6.653 -12.948,17.442 -14.794,27.381 -4.225,22.764 -4.997,43.377 -9.328,63.821 -1.844,8.71 5.341,11.076 11.044,8.397 26.521,-12.458 55.173,-31.017 69.63,-62.753 10.274,-22.55 3.289,-39.909 -8.086,-52.573 10.509,12.356 15.651,29.428 6.175,50.89 -10.607,24.033 -32.579,47.573 -66.424,62.061 -4.371,1.87 -11.394,-1.428 -10.333,-6.583 4.279,-20.776 4.8,-41.68 9.046,-63.197 2.173,-10.997 7.425,-19.762 13.07,-27.444"
           style="fill:#ffaca6;fill-opacity:1;fill-rule:evenodd;stroke:none"
           id="path4234" /><path
           d="m 276.654,632.171 c -7.182,6.653 -12.948,17.442 -14.794,27.381 -2.434,13.105 -3.719,25.495 -5.202,37.553 0.648,-0.521 1.301,-1.04 1.949,-1.557 1.371,-11.841 2.581,-23.789 4.977,-35.933 2.173,-10.997 7.425,-19.762 13.07,-27.444"
           style="fill:#f28a83;fill-opacity:1;fill-rule:evenodd;stroke:none"
           id="path4236" /><path
           d="m 305.922,600.954 c -6.082,3.665 -16.348,15.431 -11.39,25.511 4.984,10.134 -3.143,31.249 -15.388,42.537 -17.025,15.693 -33.198,25.366 -47.536,40.571 -5.044,5.352 -13.092,1.707 -13.859,-4.547 -3.564,-29.083 -2.469,-61.177 16.708,-90.305 20.294,-30.828 49.273,-24.783 71.465,-13.767"
           style="fill:#eb0000;fill-opacity:1;fill-rule:evenodd;stroke:none"
           id="path4238" /><path
           d="m 304.655,698.448 c -11.969,12.063 -24.059,23.884 -41.511,29.827 -4.753,1.618 -6.274,-3.233 -5.503,-6.692 3.093,-13.858 4.967,-28.983 5.427,-41.65 0.899,7.05 1.357,15.392 -0.119,23.476 4.139,-6.442 5.864,-13.782 6.841,-20.708 1.016,9.492 -2.119,18.608 -5.436,27.708 4.108,-7.91 9.002,-14.748 15.784,-19.013 -7.055,7.424 -12.849,15.849 -13.875,28.05 9.163,-3.456 16.241,-9.384 21.698,-17.233 -3.82,6.704 -8.18,12.914 -15.005,16.873 13.121,-3.824 22.092,-12.61 31.699,-20.638"
           style="fill:#ff392b;fill-opacity:1;fill-rule:evenodd;stroke:none"
           id="path4240" /><path
           d="m 269.024,687.298 c 0.32,-0.256 0.64,-0.513 0.96,-0.77 0.004,-1.269 -0.056,-2.545 -0.194,-3.827 -0.212,1.517 -0.463,3.054 -0.766,4.597 m -6.825,5.406 1.699,-1.343 c -0.039,-4.004 -0.378,-7.88 -0.83,-11.428 -0.147,4.046 -0.439,8.343 -0.869,12.771"
           style="fill:#e02121;fill-opacity:1;fill-rule:evenodd;stroke:none"
           id="path4242" /><path
           d="m 305.922,600.954 c -4.682,2.82 -11.842,10.442 -12.63,18.4 -0.007,0.004 -0.059,0.811 -0.061,0.887 -1.003,14.18 -4.253,27.823 -16.426,39.341 11.671,-13.748 14.061,-29.396 10.175,-46.329 -1.523,18.694 -7.715,37.531 -20.988,56.591 10.839,-20.395 15.933,-38.503 16.138,-54.67 -3.643,18.069 -10.722,35.683 -22.101,52.727 9.439,-19.721 14.049,-39.097 15.972,-58.281 -17.018,15.063 -23.968,34.09 -27.089,55.386 0.147,-15.918 1.988,-31.523 6.06,-46.712 -8.574,16.869 -16.698,34.017 -20.143,54.082 0.242,-19.162 6.224,-36.873 12.526,-54.501 -0.319,0.092 -0.644,0.185 -0.963,0.277 -9.57,18.253 -18.851,36.666 -22.849,57.998 1.673,-21.382 9.328,-39.82 17.026,-58.237 -11.295,17.444 -20.491,36.047 -23.488,58.076 l -0.778,-2.456 c 0.881,-19.764 5.712,-39.913 18.154,-58.812 20.294,-30.828 49.273,-24.783 71.465,-13.767"
           style="fill:#cf0000;fill-opacity:1;fill-rule:evenodd;stroke:none"
           id="path4244" /><path
           d="m 294.877,642.241 c -1.811,9.621 -7.877,20.244 -15.31,27.096 -17.024,15.693 -34.066,27.314 -49.069,41.861 -6.394,6.196 -12.22,1.371 -12.987,-4.883 -3.564,-29.083 -3.102,-63.218 16.075,-92.346 13.627,-20.7 32.041,-24.023 48.815,-21.132 -16.054,-2.321 -33.243,2.41 -46.375,21.854 -14.701,21.769 -22.94,52.897 -17.193,89.264 0.742,4.694 7.273,8.888 11.073,5.246 15.312,-14.681 32.734,-26.243 48.689,-41.29 8.156,-7.69 12.781,-16.805 16.282,-25.67"
           style="fill:#ffaca6;fill-opacity:1;fill-rule:evenodd;stroke:none"
           id="path4246" /><path
           d="m 224.433,654.118 c -3.847,16.552 -7.417,33.079 -3.164,51.018 1.159,4.885 6.075,3.593 8.595,1.096 10.087,-9.993 21.896,-19.628 32.374,-26.756 -6.445,2.991 -13.754,7.041 -19.812,12.592 3.253,-6.932 8.548,-12.297 13.89,-16.812 -8.576,4.191 -14.627,11.697 -20.566,19.348 4.512,-7.687 7.698,-15.469 7.698,-23.483 -2.529,9.926 -6.579,19.313 -16.365,26.675 -1.95,-9.598 -0.696,-18.744 3.045,-27.542 -3.642,6.803 -6.581,13.799 -6.3,21.684 -3.745,-13.145 -1.08,-25.415 0.605,-37.82"
           style="fill:#ff392b;fill-opacity:1;fill-rule:evenodd;stroke:none"
           id="path4248" /><path
           d="M 478.015,468.95 C 458.49,433.356 445.939,386.766 437.986,332.97 429.968,278.737 426.633,217.376 425.565,152.64 l -11.147,0.174 c 1.08,65.308 4.438,127.174 12.509,181.772 8.137,55.033 21.077,102.877 41.298,139.739 z"
           style="fill:#abde7e;fill-opacity:1;fill-rule:evenodd;stroke:none"
           id="path4250" /><path
           d="m 541.395,570.997 c 0.185,0.606 8.545,4.143 10.543,-4.503 1.336,-5.798 4.869,-4.249 10.016,-7.228 7.963,-4.606 1.706,-13.347 0.522,-16.56 -2.019,-5.477 -11.083,-17.728 -16.588,-19.884 -5.042,-1.974 -21.816,-4.986 -23.288,3.564 -1.9,11.026 -1.296,20.521 6.039,29.058 3.706,4.316 4.763,5.553 9.157,8.93 1.381,1.061 3.246,5.465 3.599,6.623"
           style="fill:#deb200;fill-opacity:1;fill-rule:evenodd;stroke:none"
           id="path4252" /><path
           d="m 541.395,570.997 c 0.185,0.606 8.545,4.143 10.543,-4.503 0.169,-0.743 0.377,-1.367 0.622,-1.894 3.434,-10.603 -2.218,-22.328 -6.184,-33.845 -6.002,0.514 -12.006,1.024 -18.01,1.538 l -2.982,18.578 c 0.892,1.557 1.97,3.08 3.255,4.573 3.706,4.316 4.763,5.553 9.157,8.93 1.381,1.061 3.246,5.465 3.599,6.623"
           style="fill:#c9a100;fill-opacity:1;fill-rule:evenodd;stroke:none"
           id="path4254" /><path
           d="m 466.288,458.319 -3.151,7.504 c 0.668,1.634 0.81,1.517 2.187,3.272 l 19.984,23.275 8.973,-17.849 -19.017,-18.026 z"
           style="fill:#a38200;fill-opacity:1;fill-rule:evenodd;stroke:none"
           id="path4256" /><path
           d="m 466.202,458.384 c 6.704,2.351 19.151,11.779 16.348,22.659 -2.817,10.936 9.437,29.953 23.726,38.511 19.865,11.896 37.668,18.074 54.801,30.041 6.03,4.212 13.166,-0.995 12.644,-7.274 -2.432,-29.2 -10.041,-60.398 -34.747,-85.011 -26.147,-26.05 -53.288,-14.23 -72.772,1.074"
           style="fill:#ffcc00;fill-opacity:1;fill-rule:evenodd;stroke:none"
           id="path4258" /><path
           d="m 466.202,458.384 c 6.704,2.351 19.151,11.779 16.348,22.659 -2.817,10.936 9.437,29.953 23.726,38.511 11.472,6.869 22.254,11.833 32.618,17.102 -3.566,-10.855 -6.838,-21.722 -11.213,-32.406 -2.075,-5.07 -5.021,-9.87 -8.399,-14.173 -7.395,-9.419 -20.864,-20.954 -33.721,-19.65 -5.735,0.583 -11.021,-8.894 -11.899,-13.558 l -0.648,-3.438 c -2.358,1.575 -4.634,3.241 -6.812,4.953"
           style="fill:#f0c000;fill-opacity:1;fill-rule:evenodd;stroke:none"
           id="path4260" /><path
           d="m 466.202,458.384 c 5.158,1.809 13.722,7.81 16.114,15.442 0.006,0.002 0.223,0.782 0.24,0.859 3.869,13.675 9.83,26.374 24.093,35.169 -14.229,-11.081 -19.753,-25.916 -19.399,-43.286 5.3,17.994 15.2,35.175 32.073,51.132 -14.765,-17.76 -23.438,-34.453 -26.933,-50.239 7.249,16.949 17.765,32.752 32.376,47.124 -13.255,-17.389 -21.714,-35.418 -27.504,-53.809 19.727,11.283 30.406,28.496 37.798,48.709 -3.382,-15.554 -8.362,-30.457 -15.443,-44.499 11.829,14.769 23.276,29.904 30.734,48.846 -4.139,-18.711 -13.603,-34.832 -23.366,-50.808 0.335,0.026 0.67,0.05 1.003,0.076 13.086,15.921 25.922,32.06 34.181,52.129 -5.991,-20.592 -17.243,-37.086 -28.531,-53.549 14.612,14.779 27.405,31.12 34.824,52.076 l 0.264,-2.564 c -4.891,-19.17 -13.722,-37.913 -29.752,-53.882 -26.147,-26.05 -53.288,-14.23 -72.772,1.074"
           style="fill:#deb200;fill-opacity:1;fill-rule:evenodd;stroke:none"
           id="path4262" /><path
           d="m 494.089,471.278 c 2.796,0.795 5.554,2.044 8.199,3.594 5.428,13.515 12.627,26.791 22.478,39.713 -13.508,-13.287 -23.515,-27.798 -30.677,-43.307 m -5.652,-0.933 c 1.615,0.064 3.231,0.315 4.836,0.717 3.96,14.718 12.402,30.223 26.05,46.638 -15.688,-14.837 -25.349,-30.733 -30.886,-47.355 m -22.235,-11.961 c 5.158,1.809 13.722,7.81 16.114,15.442 0.006,0.002 0.223,0.782 0.24,0.859 3.869,13.675 9.83,26.374 24.093,35.169 -13.189,-10.272 -18.9,-23.771 -19.379,-39.523 -0.571,0.009 -1.141,0.039 -1.709,0.096 -5.735,0.583 -11.021,-8.894 -11.899,-13.558 l -0.648,-3.438 c -2.358,1.575 -4.634,3.241 -6.812,4.953"
           style="fill:#d1a700;fill-opacity:1;fill-rule:evenodd;stroke:none"
           id="path4264" /><path
           d="m 485.424,496.557 c 3.732,9.05 11.835,18.217 20.506,23.411 19.864,11.897 38.914,19.805 56.567,30.991 7.52,4.765 12.243,-1.146 11.721,-7.424 -2.434,-29.2 -9.841,-62.524 -34.546,-87.139 -17.554,-17.49 -36.26,-16.995 -52.093,-10.747 15.243,-5.541 33.037,-4.408 49.85,11.953 18.826,18.319 33.231,47.116 35.012,83.891 0.229,4.748 -5.31,10.182 -9.771,7.39 -17.982,-11.253 -37.392,-19.028 -56.078,-30.509 -9.551,-5.868 -15.936,-13.85 -21.168,-21.817"
           style="fill:#ffefb0;fill-opacity:1;fill-rule:evenodd;stroke:none"
           id="path4266" /><path
           d="m 485.424,496.557 c 3.732,9.05 11.835,18.217 20.506,23.411 11.435,6.849 22.6,12.376 33.383,17.966 -0.259,-0.79 -0.519,-1.581 -0.778,-2.371 -10.62,-5.41 -21.398,-10.709 -31.943,-17.189 -9.551,-5.868 -15.936,-13.85 -21.168,-21.817"
           style="fill:#f28a83;fill-opacity:1;fill-rule:evenodd;stroke:none"
           id="path4268" /><path
           d="m 466.368,458.241 c 1.315,6.982 8.762,20.705 19.94,19.572 11.236,-1.14 28.194,13.837 34.505,29.25 8.772,21.427 12.203,39.957 21.457,58.695 3.256,6.595 -2.965,12.867 -9.095,11.406 -28.5,-6.797 -58.2,-19.013 -78.818,-47.139 -21.819,-29.768 -6.05,-54.824 12.011,-71.784"
           style="fill:#ffcc00;fill-opacity:1;fill-rule:evenodd;stroke:none"
           id="path4270" /><path
           d="m 557.306,493.418 c 7.134,15.421 13.996,30.873 13.484,49.303 -0.139,5.018 -5.215,4.755 -8.191,2.824 -11.909,-7.73 -25.432,-14.757 -37.144,-19.604 6.92,1.616 14.899,4.093 21.961,8.295 -4.595,-6.125 -10.874,-10.299 -17.024,-13.632 9.252,2.358 16.702,8.473 24.074,14.754 -5.981,-6.605 -10.684,-13.577 -12.318,-21.421 4.498,9.201 10.374,17.567 21.454,22.783 -0.043,-9.793 -3.134,-18.493 -8.587,-26.346 4.949,5.919 9.253,12.171 10.584,19.947 0.99,-13.633 -4.118,-25.102 -8.293,-36.903"
           style="fill:#ffe26e;fill-opacity:1;fill-rule:evenodd;stroke:none"
           id="path4272" /><path
           d="m 534.433,522.926 c -0.127,-0.39 -0.257,-0.78 -0.387,-1.169 -1.187,-0.446 -2.405,-0.834 -3.654,-1.153 1.348,0.73 2.701,1.5 4.041,2.322 m 2.689,8.28 -0.666,-2.06 c -3.768,-1.361 -7.519,-2.391 -11.001,-3.205 3.741,1.547 7.666,3.32 11.667,5.265"
           style="fill:#ffd426;fill-opacity:1;fill-rule:evenodd;stroke:none"
           id="path4274" /><path
           d="m 466.368,458.241 c 1.012,5.373 5.658,14.74 12.842,18.254 0.003,0.009 0.739,0.338 0.811,0.367 12.939,5.884 24.595,13.684 31.148,29.11 -8.818,-15.736 -22.652,-23.427 -39.878,-25.69 16.992,7.945 32.488,20.321 45.727,39.4 -15.337,-17.269 -30.535,-28.356 -45.617,-34.185 15.665,9.717 29.709,22.49 41.717,39.097 -15.195,-15.721 -31.749,-26.797 -49.058,-35.284 8.184,21.201 23.596,34.345 42.468,44.694 -14.869,-5.686 -28.852,-12.849 -41.669,-21.962 12.824,13.915 26.061,27.509 43.669,37.732 -17.876,-6.906 -32.391,-18.686 -46.715,-30.741 -0.027,0.334 -0.053,0.668 -0.077,1.002 13.772,15.333 27.794,30.45 46.394,41.634 -19.457,-9.022 -34.07,-22.625 -48.648,-36.262 12.413,16.668 26.642,31.773 46.245,42.263 l -2.574,-0.127 c -18.215,-7.719 -35.419,-19.269 -48.796,-37.518 -21.819,-29.768 -6.05,-54.824 12.011,-71.784"
           style="fill:#deb200;fill-opacity:1;fill-rule:evenodd;stroke:none"
           id="path4276" /><path
           d="m 501.214,482.988 c 8.386,5.051 16.229,14.44 20.061,23.794 8.773,21.427 13.724,41.45 22.129,60.585 3.579,8.152 -2.975,11.932 -9.103,10.469 -28.503,-6.797 -60.334,-19.13 -80.95,-47.257 -14.652,-19.987 -11.349,-38.406 -2.79,-53.12 -7.773,14.239 -9.329,31.999 4.318,51.083 15.278,21.368 41.583,39.941 77.672,47.231 4.657,0.942 10.864,-3.717 8.774,-8.547 -8.42,-19.47 -13.185,-39.83 -21.727,-60.03 -4.364,-10.324 -11.294,-17.837 -18.384,-24.208"
           style="fill:#ffefb0;fill-opacity:1;fill-rule:evenodd;stroke:none"
           id="path4278" /><path
           d="m 487.791,553.154 c 14.173,9.374 28.418,18.484 46.716,20.748 4.981,0.617 5.482,-4.442 4.023,-7.673 -5.849,-12.937 -10.764,-27.364 -13.795,-39.671 0.558,7.086 1.807,15.347 4.898,22.96 -5.364,-5.465 -8.548,-12.298 -10.917,-18.88 0.94,9.5 5.864,17.786 10.967,26.019 -5.633,-6.908 -11.816,-12.605 -19.327,-15.399 8.42,5.831 15.808,12.899 19.298,24.637 -9.675,-1.518 -17.813,-5.881 -24.755,-12.454 5.107,5.784 10.64,10.977 18.129,13.463 -13.627,-1.071 -24.198,-7.845 -35.237,-13.75"
           style="fill:#ffe26e;fill-opacity:1;fill-rule:evenodd;stroke:none"
           id="path4280" /><path
           d="m 325.861,170.241 c 20.963,10.357 44.642,-14.638 60.318,5.358 15.673,19.998 46.559,-6.642 57.703,0.082 11.146,6.721 39.826,10.815 43.193,-1.569 3.367,-12.386 43.18,-1.87 34.559,-41.062 -9.711,-44.135 -52.581,-22.447 -73.851,-34.728 -28.394,-16.395 -44.059,4.79 -69.113,-2.435 -45.106,-13.007 -47.608,29.698 -86.762,37.948 -53.178,11.206 12.991,26.047 33.953,36.406"
           style="fill:#996633;fill-opacity:1;fill-rule:evenodd;stroke:none"
           id="path4282" /><path
           d="M 521.165,131.077 C 510.62,89.569 468.726,110.415 447.783,98.322 c -28.394,-16.395 -44.059,4.79 -69.113,-2.435 -28.149,-8.116 -39.707,5.464 -53.933,18.825 35.273,-12.194 42.176,-0.242 58.242,3.438 31.549,7.225 33.751,-12.064 69.505,4.331 17.658,8.096 48.901,-15.946 68.681,8.596"
           style="fill:#855321;fill-opacity:1;fill-rule:evenodd;stroke:none"
           id="path4284" /></g></g></g></svg>
